<svg version="1.1" xmlns="http://www.w3.org/2000/svg" viewBox="0 0 968.82421875 606.5882568359375" width="968.82421875" height="606.5882568359375">
  <!-- svg-source:excalidraw -->
  
  <defs>
    <style class="style-fonts">
      @font-face {
        font-family: "Virgil";
        src: url("https://excalidraw.com/Virgil.woff2");
      }
      @font-face {
        font-family: "Cascadia";
        src: url("https://excalidraw.com/Cascadia.woff2");
      }
    </style>
    
  </defs>
  <g stroke-linecap="round" transform="translate(31.8359375 436.0218505859375) rotate(0 125.7578125 80.283203125)"><path d="M0.98 0.49 C83.5 2.7, 169.71 0.13, 253.12 -0.2 M0.27 0.61 C81.67 0.49, 162.82 -0.08, 252.08 0.15 M251.4 -1.09 C253.08 38.75, 252.51 77.37, 251.73 161.75 M252.04 -0.17 C250.53 42.82, 250.57 86.11, 252.18 161.35 M250.42 159 C176.65 160.8, 102.6 161.01, 0.78 158.96 M251.35 160.63 C166.85 158.47, 81.97 158.5, -0.47 160.88 M0.17 161.71 C-2.21 99.02, -2.73 33.75, 1.29 -1.48 M-0.44 160.26 C-0.29 123.24, 0.99 84.6, -0.3 0.34" stroke="#1e1e1e" stroke-width="1" fill="none"></path></g><g transform="translate(141.17376708984375 501.0101318359375) rotate(0 16.41998291015625 12.5)"><text x="0" y="0" font-family="Virgil, Segoe UI Emoji" font-size="20px" fill="#1e1e1e" text-anchor="start" style="white-space: pre;" direction="ltr" dominant-baseline="text-before-edge">App</text></g><g stroke-linecap="round"><g transform="translate(313.8125000000001 507.17216823116314) rotate(0 134.66270036156135 0.6595162338671798)"><path d="M1.49 0.68 C88.52 -0.02, 173.53 -0.1, 268.64 2.35 M0.68 -0.78 C68.94 -1.76, 136.5 0.28, 268.36 2" stroke="#1e1e1e" stroke-width="1" fill="none"></path></g><g transform="translate(313.8125000000001 507.17216823116314) rotate(0 134.66270036156135 0.6595162338671798)"><path d="M241.92 12.7 C250.55 8.57, 256.63 4.3, 267.95 2.06 M240.89 10.84 C247.75 8.24, 253.82 7.58, 267.58 1.61" stroke="#1e1e1e" stroke-width="1" fill="none"></path></g><g transform="translate(313.8125000000001 507.17216823116314) rotate(0 134.66270036156135 0.6595162338671798)"><path d="M242.22 -7.82 C250.8 -5.28, 256.78 -2.87, 267.95 2.06 M241.19 -9.68 C248.14 -7.05, 254.13 -2.49, 267.58 1.61" stroke="#1e1e1e" stroke-width="1" fill="none"></path></g></g><mask></mask><g stroke-linecap="round" transform="translate(614.74609375 432.9456787109375) rotate(0 172.0390625 80.283203125)"><path d="M0.68 -0.94 C129.9 -0.12, 257.13 -0.62, 343.84 -1.31 M-0.11 -0.07 C106.43 1.76, 212.06 2.14, 344.53 0.51 M342.13 0.57 C344.54 56.54, 345.71 109.83, 342.26 159.36 M344.5 -0.08 C346.38 38.75, 345.02 76.15, 344.81 160.52 M343.27 159.61 C254.54 158.44, 167.25 159.46, -0.66 160.39 M344.61 160.3 C228.98 161.17, 113.5 160.92, 0.52 161.08 M1.62 159.29 C0.67 116.61, 1.02 74.11, 0.22 1.27 M0.89 161.4 C1.06 118.14, 0.7 75.79, 0.65 0.07" stroke="#1e1e1e" stroke-width="1" fill="none"></path></g><g transform="translate(674.9552536010742 500.7288818359375) rotate(0 111.82990264892578 12.5)"><text x="0" y="0" font-family="Virgil, Segoe UI Emoji" font-size="20px" fill="#1e1e1e" text-anchor="start" style="white-space: pre;" direction="ltr" dominant-baseline="text-before-edge">DiscoverFlashcardPage</text></g><g stroke-linecap="round" transform="translate(10 154.6761474609375) rotate(0 157.95703125 80.283203125)"><path d="M0.85 0.77 C110.42 -2.56, 221.43 -2.62, 316.33 1.21 M0.11 -0.17 C78.32 0.57, 157.15 0.72, 315.69 -0.16 M315.95 1.09 C313.1 46.4, 312.49 90.34, 315.49 161.09 M316.32 0.95 C313.47 37.71, 314.06 76.3, 316.75 160.94 M316.79 161.13 C208 157.96, 98.34 157.47, 0.34 160.24 M315.57 160.25 C214.04 159.38, 111.77 159.35, -0.17 160.38 M0.24 162.38 C-1.91 122.07, -0.32 83.74, -0.37 -1.88 M-0.35 160.18 C-1.26 127.62, -1.28 93.07, -0.79 0.27" stroke="#1971c2" stroke-width="1" fill="none"></path></g><g transform="translate(66.95709991455078 222.4593505859375) rotate(0 100.99993133544922 12.5)"><text x="0" y="0" font-family="Virgil, Segoe UI Emoji" font-size="20px" fill="#1971c2" text-anchor="start" style="white-space: pre;" direction="ltr" dominant-baseline="text-before-edge">FlashcardDataLayer</text></g><g stroke-linecap="round"><g transform="translate(165.40234375 319.2835693359375) rotate(0 -2.583449108991772 54.5304088620469)"><path d="M0.29 0.34 C-3.29 29.86, -3.6 53.93, -5.74 107.48 M0.57 -0.14 C-2.39 42.81, -4.2 86.35, -5.53 109.2" stroke="#1971c2" stroke-width="1" fill="none"></path></g><g transform="translate(165.40234375 319.2835693359375) rotate(0 -2.583449108991772 54.5304088620469)"><path d="M-14.01 80.85 C-13.42 89.72, -10.1 93.28, -5.78 107.37 M-13.73 80.37 C-11.34 91.34, -7.51 102.92, -5.57 109.09" stroke="#1971c2" stroke-width="1" fill="none"></path></g><g transform="translate(165.40234375 319.2835693359375) rotate(0 -2.583449108991772 54.5304088620469)"><path d="M6.48 81.93 C1.87 90.72, -0.03 94.01, -5.78 107.37 M6.77 81.45 C1.02 92.02, -3.27 103.17, -5.57 109.09" stroke="#1971c2" stroke-width="1" fill="none"></path></g></g><mask></mask><g stroke-linecap="round"><g transform="translate(300.98828125 467.9593505859375) rotate(0 148.88317062620064 0.33244208775977313)"><path d="M1.13 -0.5 C94.42 2.3, 188.9 0.92, 298.1 0.71 M-0.34 0.19 C75.22 -0.57, 149.65 -1.22, 296.5 0.63" stroke="#1971c2" stroke-width="1" fill="none"></path></g><g transform="translate(300.98828125 467.9593505859375) rotate(0 148.88317062620064 0.33244208775977313)"><path d="M269.75 9.96 C277.57 8, 287.02 2.68, 297.85 0.68 M267.76 10.88 C276.08 8.33, 282.86 4.71, 295.67 0.57" stroke="#1971c2" stroke-width="1" fill="none"></path></g><g transform="translate(300.98828125 467.9593505859375) rotate(0 148.88317062620064 0.33244208775977313)"><path d="M269.94 -10.57 C277.71 -6.02, 287.1 -4.84, 297.85 0.68 M267.94 -9.64 C276.18 -7.03, 282.92 -5.49, 295.67 0.57" stroke="#1971c2" stroke-width="1" fill="none"></path></g></g><mask></mask><g transform="translate(148.546875 10) rotate(0 312.6418762207031 22.5)"><text x="0" y="0" font-family="Virgil, Segoe UI Emoji" font-size="36px" fill="#1e1e1e" text-anchor="start" style="white-space: pre;" direction="ltr" dominant-baseline="text-before-edge">ZephyrNode Front End Architecture</text></g></svg>